<?xml version="1.0" standalone="no"?>
<!DOCTYPE svg PUBLIC "-//W3C//DTD SVG 20010904//EN"
 "http://www.w3.org/TR/2001/REC-SVG-20010904/DTD/svg10.dtd">
<svg version="1.0" xmlns="http://www.w3.org/2000/svg"
 width="500.000000pt" height="500.000000pt" viewBox="0 0 500.000000 500.000000"
 preserveAspectRatio="xMidYMid meet">

<g transform="translate(0.000000,500.000000) scale(0.100000,-0.100000)"
fill="#000000" stroke="none">
<path d="M3171 4370 l-214 -5 -129 -355 c-71 -195 -211 -582 -313 -860 -101
-278 -229 -629 -284 -780 -179 -494 -370 -1018 -502 -1379 -71 -195 -128 -356
-126 -358 8 -8 429 -5 437 3 4 5 60 155 125 334 65 179 194 534 287 790 94
256 201 551 238 655 38 105 125 345 195 535 70 190 178 487 240 660 63 173
150 414 195 534 44 121 77 222 73 225 -4 3 -104 4 -222 1z"/>
<path d="M595 3090 c-319 -319 -581 -583 -582 -587 -2 -5 260 -271 582 -593
l585 -585 146 146 147 147 -444 441 -443 441 442 443 442 442 -142 142 c-79
79 -145 143 -148 143 -3 0 -266 -261 -585 -580z"/>
<path d="M3672 3528 l-142 -143 442 -442 442 -443 -442 -442 -443 -442 143
-143 c79 -79 146 -142 150 -141 5 2 271 266 593 588 l585 585 -582 582 c-321
320 -588 583 -593 583 -6 0 -74 -64 -153 -142z"/>
</g>
</svg>
